HIERARCHY
ROOT Hips
{
    OFFSET   0.000000   0.000000   0.000000
    CHANNELS 6 Xposition Yposition Zposition Zrotation Xrotation Yrotation
    JOINT Chest
    {
        OFFSET   0.000000   8.007230   0.000000
        CHANNELS 3 Zrotation Xrotation Yrotation
        JOINT Chest2
        {
            OFFSET   0.000000  22.077100   0.000000
            CHANNELS 3 Zrotation Xrotation Yrotation
            JOINT Neck
            {
                OFFSET   0.000000  23.254800   0.000000
                CHANNELS 3 Zrotation Xrotation Yrotation
                JOINT Head
                {
                    OFFSET   0.000010  14.370000   1.956600
                    CHANNELS 3 Zrotation Xrotation Yrotation
                    End Site
                    {
                        OFFSET   0.000000  19.566000   0.000000
                    }
                }
            }
            JOINT LeftCollar
            {
                OFFSET   3.911900  19.017000  -0.467062
                CHANNELS 3 Zrotation Xrotation Yrotation
                JOINT LeftShoulder
                {
                    OFFSET  10.383700   0.000000   0.000000
                    CHANNELS 3 Zrotation Xrotation Yrotation
                    JOINT LeftElbow
                    {
                        OFFSET  26.662100   0.001193   0.000835
                        CHANNELS 3 Zrotation Xrotation Yrotation
                        JOINT LeftWrist
                        {
                            OFFSET  28.869000  -0.000058  -0.000075
                            CHANNELS 3 Zrotation Xrotation Yrotation
                            JOINT LeftFinger0
                            {
                                OFFSET   2.044660  -2.323460   3.252850
                                CHANNELS 3 Zrotation Xrotation Yrotation
                                JOINT LeftFinger01
                                {
                                    OFFSET   3.088130   0.000000   0.000000
                                    CHANNELS 3 Zrotation Xrotation Yrotation
                                    JOINT LeftFinger02
                                    {
                                        OFFSET   2.639450   0.000000   0.000000
                                        CHANNELS 3 Zrotation Xrotation Yrotation
                                        End Site
                                        {
                                            OFFSET   2.582190   0.000000   0.000000
                                        }
                                    }
                                }
                            }
                            JOINT LeftFinger1
                            {
                                OFFSET   8.364480   0.000000   3.252850
                                CHANNELS 3 Zrotation Xrotation Yrotation
                                JOINT LeftFinger11
                                {
                                    OFFSET   4.646920   0.000000   0.000000
                                    CHANNELS 3 Zrotation Xrotation Yrotation
                                    JOINT LeftFinger12
                                    {
                                        OFFSET   2.323460   0.000000   0.000000
                                        CHANNELS 3 Zrotation Xrotation Yrotation
                                        End Site
                                        {
                                            OFFSET   2.273050   0.000000   0.000000
                                        }
                                    }
                                }
                            }
                            JOINT LeftFinger2
                            {
                                OFFSET   8.364490   0.000016   1.078090
                                CHANNELS 3 Zrotation Xrotation Yrotation
                                JOINT LeftFinger21
                                {
                                    OFFSET   5.111620   0.000000   0.000000
                                    CHANNELS 3 Zrotation Xrotation Yrotation
                                    JOINT LeftFinger22
                                    {
                                        OFFSET   2.788150   0.000012   0.000000
                                        CHANNELS 3 Zrotation Xrotation Yrotation
                                        End Site
                                        {
                                            OFFSET   2.727660   0.000000   0.000000
                                        }
                                    }
                                }
                            }
                            JOINT LeftFinger3
                            {
                                OFFSET   7.899780   0.000014  -1.078090
                                CHANNELS 3 Zrotation Xrotation Yrotation
                                JOINT LeftFinger31
                                {
                                    OFFSET   4.646930   0.000000   0.000000
                                    CHANNELS 3 Zrotation Xrotation Yrotation
                                    JOINT LeftFinger32
                                    {
                                        OFFSET   2.323470   0.000000   0.000000
                                        CHANNELS 3 Zrotation Xrotation Yrotation
                                        End Site
                                        {
                                            OFFSET   2.273050   0.000000   0.000000
                                        }
                                    }
                                }
                            }
                            JOINT LeftFinger4
                            {
                                OFFSET   7.435090   0.000000  -3.252850
                                CHANNELS 3 Zrotation Xrotation Yrotation
                                JOINT LeftFinger41
                                {
                                    OFFSET   3.717550   0.000000   0.000000
                                    CHANNELS 3 Zrotation Xrotation Yrotation
                                    JOINT LeftFinger42
                                    {
                                        OFFSET   1.858770   0.000000   0.000000
                                        CHANNELS 3 Zrotation Xrotation Yrotation
                                        End Site
                                        {
                                            OFFSET   1.818440   0.000000   0.000000
                                        }
                                    }
                                }
                            }
                        }
                    }
                }
            }
            JOINT RightCollar
            {
                OFFSET  -3.911900  19.017000  -0.467063
                CHANNELS 3 Zrotation Xrotation Yrotation
                JOINT RightShoulder
                {
                    OFFSET -10.383700   0.000023   0.000000
                    CHANNELS 3 Zrotation Xrotation Yrotation
                    JOINT RightElbow
                    {
                        OFFSET -26.662100   0.001246   0.001011
                        CHANNELS 3 Zrotation Xrotation Yrotation
                        JOINT RightWrist
                        {
                            OFFSET -28.869000  -0.000026  -0.000078
                            CHANNELS 3 Zrotation Xrotation Yrotation
                            JOINT RightFinger0
                            {
                                OFFSET  -2.044660  -2.323490   3.252850
                                CHANNELS 3 Zrotation Xrotation Yrotation
                                JOINT RightFinger01
                                {
                                    OFFSET  -3.088130   0.000000   0.000000
                                    CHANNELS 3 Zrotation Xrotation Yrotation
                                    JOINT RightFinger02
                                    {
                                        OFFSET  -2.639460   0.000000   0.000000
                                        CHANNELS 3 Zrotation Xrotation Yrotation
                                        End Site
                                        {
                                            OFFSET  -2.582190   0.000000   0.000000
                                        }
                                    }
                                }
                            }
                            JOINT RightFinger1
                            {
                                OFFSET  -8.364480   0.000000   3.252850
                                CHANNELS 3 Zrotation Xrotation Yrotation
                                JOINT RightFinger11
                                {
                                    OFFSET  -4.646920   0.000000   0.000000
                                    CHANNELS 3 Zrotation Xrotation Yrotation
                                    JOINT RightFinger12
                                    {
                                        OFFSET  -2.323470   0.000000   0.000000
                                        CHANNELS 3 Zrotation Xrotation Yrotation
                                        End Site
                                        {
                                            OFFSET  -2.273050   0.000000   0.000000
                                        }
                                    }
                                }
                            }
                            JOINT RightFinger2
                            {
                                OFFSET  -8.364480   0.000000   1.078090
                                CHANNELS 3 Zrotation Xrotation Yrotation
                                JOINT RightFinger21
                                {
                                    OFFSET  -5.111620   0.000000   0.000000
                                    CHANNELS 3 Zrotation Xrotation Yrotation
                                    JOINT RightFinger22
                                    {
                                        OFFSET  -2.788160   0.000000   0.000000
                                        CHANNELS 3 Zrotation Xrotation Yrotation
                                        End Site
                                        {
                                            OFFSET  -2.727660   0.000000   0.000000
                                        }
                                    }
                                }
                            }
                            JOINT RightFinger3
                            {
                                OFFSET  -7.899780   0.000000  -1.078090
                                CHANNELS 3 Zrotation Xrotation Yrotation
                                JOINT RightFinger31
                                {
                                    OFFSET  -4.646930   0.000000   0.000000
                                    CHANNELS 3 Zrotation Xrotation Yrotation
                                    JOINT RightFinger32
                                    {
                                        OFFSET  -2.323470   0.000000   0.000000
                                        CHANNELS 3 Zrotation Xrotation Yrotation
                                        End Site
                                        {
                                            OFFSET  -2.273050   0.000000   0.000000
                                        }
                                    }
                                }
                            }
                            JOINT RightFinger4
                            {
                                OFFSET  -7.435090   0.000000  -3.252850
                                CHANNELS 3 Zrotation Xrotation Yrotation
                                JOINT RightFinger41
                                {
                                    OFFSET  -3.717550   0.000000   0.000000
                                    CHANNELS 3 Zrotation Xrotation Yrotation
                                    JOINT RightFinger42
                                    {
                                        OFFSET  -1.858760   0.000000   0.000000
                                        CHANNELS 3 Zrotation Xrotation Yrotation
                                        End Site
                                        {
                                            OFFSET  -1.818440   0.000000   0.000000
                                        }
                                    }
                                }
                            }
                        }
                    }
                }
            }
        }
    }
    JOINT LeftHip
    {
        OFFSET   9.783010   0.000000   0.000000
        CHANNELS 3 Zrotation Xrotation Yrotation
        JOINT LeftKnee
        {
            OFFSET   0.000073 -41.789100   0.001749
            CHANNELS 3 Zrotation Xrotation Yrotation
            JOINT LeftAnkle
            {
                OFFSET   0.000111 -41.133200  -0.000179
                CHANNELS 3 Zrotation Xrotation Yrotation
                JOINT LeftToe
                {
                    OFFSET   0.000000  -6.358960  14.674500
                    CHANNELS 3 Zrotation Xrotation Yrotation
                    End Site
                    {
                        OFFSET   0.000000   0.000000   3.913200
                    }
                }
            }
        }
    }
    JOINT RightHip
    {
        OFFSET  -9.783010   0.000000   0.000000
        CHANNELS 3 Zrotation Xrotation Yrotation
        JOINT RightKnee
        {
            OFFSET   0.000424 -41.789200   0.005205
            CHANNELS 3 Zrotation Xrotation Yrotation
            JOINT RightAnkle
            {
                OFFSET   0.000000 -41.133200  -0.000155
                CHANNELS 3 Zrotation Xrotation Yrotation
                JOINT RightToe
                {
                    OFFSET   0.000000  -6.358960  14.674500
                    CHANNELS 3 Zrotation Xrotation Yrotation
                    End Site
                    {
                        OFFSET   0.000000   0.000000   3.913200
                    }
                }
            }
        }
    }
}
MOTION
Frames: 6
Frame Time:   0.016667
  0.096969  88.850100  -5.278420  -3.169420 -24.852000  -1.448830   1.175950  16.010400  -1.484720   2.990980  31.977900  -3.549420  -2.184290  -1.458860  -0.054883  -3.594270  -2.944690  22.239400  -3.737390 -10.730300  -0.349084 -25.492800  -1.878930 -76.005600  14.764300 -10.491600 -32.098600   6.375510  -5.406080  -3.575530  45.830000  48.172000 -65.345000 -41.314300   0.001713   0.001658 -18.453900   0.002080  -0.002973 -88.994900   4.996360  -0.084721 -74.272300  -0.000146   0.001070 -55.704300  -0.000740   0.003080 -89.000000   0.001084  -0.000219 -92.593200   0.006261  -0.003224 -69.444900   0.003924   0.003529 -88.996400  -5.009530   0.094735 -93.471600   0.002383  -0.000398 -70.103700   0.000900   0.001443 -88.980900 -10.003500   0.176934 -110.000000  -0.001285  -0.000807 -80.000000   0.001072  -0.013070   7.880440  -8.913860  11.459300  38.294800   2.037750  44.726200 -31.842800 -33.246700  84.007800  14.083100 -20.971900  13.842700 -40.780500  40.604800  55.015200  38.569700   0.005752  -0.004542  15.923700   0.003869   0.000235  88.996200   4.998720   0.087117  88.664400  -0.000455   0.000769  66.498300   0.002025   0.003092  88.995200   0.000715  -0.001498 104.352000  -0.000845   0.001386  78.264000   0.004005   0.001090  88.996600  -4.998240  -0.083049 106.156000  -0.001598   0.000000  79.666100   0.002238  -0.005341  88.984600  -9.998910  -0.176316 109.996000  -0.006999  -0.002912  80.000000  -0.004070   0.001768   2.517460  19.855800   2.578440   2.289200  13.337100   8.528890  -4.356740  -8.318990   0.548338  -0.000000   0.000000  -0.000000   5.349180  17.348700  -5.149990  -1.743950  15.972100 -18.333000   1.343790  -9.066320   4.795810  -0.000000   0.000000   0.000000
  0.440618  88.885400  -5.148470  -3.775720 -24.697000  -2.969450   1.599140  15.998300  -2.392390   4.170510  31.897300  -5.620060  -2.717180  -1.707840  -0.082403  -4.483240  -3.441220  24.831800  -3.158680 -10.632500  -0.657362 -20.711200  -5.198230 -75.576000  11.917900 -11.382100 -24.404100   7.596400  -7.933960  -3.707360  46.390600  48.220200 -65.701100 -40.515700   0.001972   0.001868 -17.690800   0.001950  -0.002865 -88.995100   4.996340  -0.084677 -73.969200  -0.000248   0.001047 -55.477000  -0.000867   0.002948 -89.000000   0.001057  -0.000207 -91.672200   0.001910  -0.002742 -68.754100   0.001357   0.001957 -88.996300  -5.009600   0.094723 -92.777200   0.001144  -0.000095 -69.582900   0.000623   0.000126 -88.980800 -10.003500   0.176933 -110.000000  -0.001305  -0.000934 -80.000000   0.001143  -0.013116   8.204270  -8.496210  11.088200  37.714400   3.872320  43.724800 -30.318600  -0.038542  90.739400  14.919600 -19.870900  14.689900 -40.531600  40.553200  54.691200  39.008200   0.005686  -0.004605  16.333400   0.003869   0.000217  88.996200   4.998700   0.087124  88.173300  -0.000582   0.000752  66.130000   0.002216   0.002456  88.995100   0.000762  -0.001486 103.701000  -0.000994   0.001644  77.773200   0.004014   0.000468  88.996600  -4.998220  -0.083005 105.574000  -0.001696   0.000109  79.228300   0.002236  -0.005566  88.984600  -9.998870  -0.176314 109.996000  -0.006957  -0.002885  80.000000  -0.004006   0.001786   2.133840  19.991300   2.370650   2.220970  13.181600   9.585770  -4.118270  -8.405750   1.295070  -0.000000   0.000000   0.000000   5.189080  16.929900  -5.445420  -2.036500  16.498200 -17.044800   1.333370  -9.229160   5.122560  -0.000000   0.000000   0.000000
  0.739692  88.914700  -5.007190  -4.454630 -24.442400  -4.714520   1.995380  15.961300  -3.158770   5.270910  31.765200  -7.375920  -3.187010  -1.981920  -0.111436  -5.254860  -3.977430  27.183800  -2.550950 -10.320800  -0.832650 -16.166800  -8.503820 -74.668400  10.174400 -12.130700 -18.260500   8.838440 -10.542700  -3.828420  47.036600  48.133300 -66.176300 -39.761000   0.002200   0.002035 -16.946700   0.001812  -0.002721 -88.995300   4.996320  -0.084636 -73.925900  -0.000276   0.000988 -55.444500  -0.000907   0.002779 -89.000000   0.001027  -0.000192 -91.233500   0.000249  -0.002599 -68.425100   0.000679   0.000668 -88.996300  -5.009670   0.094705 -92.529600   0.000797   0.000000 -69.397200   0.000553  -0.000217 -88.980800 -10.003500   0.176933 -110.000000  -0.001326  -0.001058 -80.000000   0.001213  -0.013163   8.462650  -8.100980  10.496500  36.849400   5.290240  42.835000 -29.900100 -35.094300  92.166900  15.433200 -18.650900  15.496900 -40.183200  40.459700  54.188600  39.259100   0.005622  -0.004640  16.593700   0.003867   0.000214  88.996200   4.998690   0.087134  87.699200  -0.000701   0.000738  65.774400   0.002386   0.001901  88.995100   0.000810  -0.001473 103.086000  -0.001141   0.001901  77.314700   0.004026  -0.000137  88.996600  -4.998200  -0.082959 105.012000  -0.001791   0.000226  78.758900   0.002233  -0.005794  88.984600  -9.998830  -0.176312 109.996000  -0.006914  -0.002861  80.000000  -0.003938   0.001803   1.750520  20.086100   2.099920   2.115430  13.014400  10.777400  -3.890510  -8.504600   2.176940   0.000000   0.000000   0.000000   5.045800  16.434800  -5.715190  -2.387060  16.988000 -15.635000   1.338180  -9.315300   5.575080   0.000000   0.000000   0.000000
  0.964501  88.938200  -4.844440  -5.227310 -24.056000  -6.760020   2.317200  15.867200  -3.665360   6.101640  31.526800  -8.535560  -3.524670  -2.236440  -0.137128  -5.780670  -4.479420  29.088100  -2.107200  -9.704040  -0.724092 -13.406600 -10.589100 -73.286900   9.188490 -12.855400 -13.981000   9.953130 -12.181300  -4.246920  46.553800  47.298500 -65.489100 -39.161900   0.002391   0.002113 -16.344600   0.001656  -0.002559 -88.995400   4.996290  -0.084587 -74.046200  -0.000317   0.000892 -55.534700  -0.000978   0.002576 -89.000000   0.000990  -0.000146 -91.254200  -0.000295  -0.002371 -68.440700  -0.000007   0.000408 -88.996200  -5.009730   0.094698 -92.621100   0.000320   0.000181 -69.465800   0.000490  -0.000438 -88.980700 -10.003600   0.176944 -110.000000  -0.001358  -0.001185 -80.000000   0.001274  -0.013195   8.639970  -7.709730  10.051100  36.262400   5.898890  41.745100 -28.621100 -35.532900  95.048700  15.371500 -17.582300  16.200700 -40.074900  40.408600  53.863000  39.322400   0.005553  -0.004473  16.676400   0.003864   0.000219  88.996200   4.998670   0.087136  87.331600  -0.000816   0.000728  65.498700   0.002541   0.001305  88.995000   0.000864  -0.001464 102.606000  -0.001282   0.002158  76.954300   0.004043  -0.000735  88.996600  -4.998180  -0.082914 104.553000  -0.001880   0.000321  78.411300   0.002255  -0.006011  88.984600  -9.998790  -0.176312 109.996000  -0.006870  -0.002840  80.000000  -0.003855   0.001821   1.424520  20.141800   1.688680   1.900680  12.804400  12.245000  -3.700060  -8.588230   3.183610  -0.000000   0.000000   0.000000   4.907340  15.910700  -6.022170  -2.823410  17.318000 -14.035400   1.463200  -9.302170   6.262970   0.000000   0.000000  -0.000000
  1.132160  88.958300  -4.664390  -6.043370 -23.601100  -8.990820   2.556140  15.754600  -3.968070   6.689110  31.257900  -9.246670  -3.676380  -2.458060  -0.157085  -6.068800  -4.917270  30.651000  -1.735010  -9.018770  -0.522943 -12.300000 -11.891500 -71.472600   8.927900 -13.266300 -12.193200  10.699400 -13.147600  -4.746180  45.909100  46.482700 -64.820100 -38.868500   0.002555   0.002175 -16.043800   0.001492  -0.002375 -88.995600   4.996260  -0.084537 -74.223500  -0.000342   0.000771 -55.667700  -0.001038   0.002344 -89.000000   0.000949  -0.000093 -91.324600  -0.000380  -0.002188 -68.493600  -0.000429   0.000333 -88.996100  -5.009790   0.094687 -92.753400   0.000000   0.000331 -69.565100   0.000480  -0.000501 -88.980700 -10.003600   0.176956 -110.000000  -0.001392  -0.001312 -80.000000   0.001330  -0.013221   8.834490  -7.389570   9.638080  35.847200   6.065780  40.727700 -26.625900 -34.934200  99.345200  15.263900 -16.699100  16.831400 -39.977600  40.284600  53.585300  39.359100   0.005479  -0.004307  16.715700   0.003862   0.000224  88.996200   4.998660   0.087140  87.114800  -0.000924   0.000718  65.336100   0.002683   0.000710  88.995000   0.000919  -0.001454 102.305000  -0.001424   0.002416  76.728600   0.004063  -0.001327  88.996600  -4.998160  -0.082872 104.225000  -0.001961   0.000413  78.168700   0.002290  -0.006227  88.984600  -9.998740  -0.176313 109.996000  -0.006825  -0.002815  80.000000  -0.003770   0.001839   1.130540  20.220300   1.252070   1.631650  12.533000  13.886700  -3.537060  -8.651050   4.205310  -0.000000   0.000000   0.000000   4.788300  15.448600  -6.280090  -3.296330  17.502600 -12.408900   1.665620  -9.274280   7.101470  -0.000000   0.000000  -0.000000
  1.261040  88.981700  -4.461230  -6.888180 -23.127800 -11.385100   2.677570  15.661300  -4.080860   6.969960  31.052700  -9.518960  -3.639600  -2.611620  -0.165928  -6.046950  -5.227850  31.896000  -1.368440  -8.476220  -0.309695 -13.550700 -12.681700 -69.940400   9.545830 -12.362800 -12.405100  10.834800 -13.486700  -5.309950  45.586900  46.395100 -65.013100 -39.263100   0.002706   0.002287 -16.390500   0.001329  -0.002248 -88.995800   4.996230  -0.084488 -74.331400  -0.000353   0.000633 -55.748600  -0.001080   0.002083 -89.000000   0.000900  -0.000035 -91.502300  -0.000387  -0.002038 -68.626900  -0.000992   0.000218 -88.996000  -5.009850   0.094654 -92.825400  -0.000198   0.000421 -69.619000   0.000481  -0.000597 -88.980700 -10.003600   0.176958 -110.000000  -0.001427  -0.001439 -80.000000   0.001382  -0.013242   9.195120  -7.207130   9.250330  35.681900   5.818760  39.894100 -25.216000 -34.248500 102.166000  15.106500 -16.112900  17.387400 -39.589900  39.920000  53.216600  39.526500   0.005398  -0.004325  16.871000   0.003871   0.000217  88.996200   4.998650   0.087152  87.081800  -0.001027   0.000705  65.311400   0.002813   0.000115  88.994900   0.000975  -0.001440 102.240000  -0.001570   0.002677  76.680000   0.004083  -0.001918  88.996600  -4.998140  -0.082834 104.128000  -0.002035   0.000513  78.096000   0.002316  -0.006442  88.984600  -9.998690  -0.176309 109.996000  -0.006777  -0.002777  80.000000  -0.003699   0.001858   0.862330  20.383500   0.866723   1.330230  12.171300  15.706700  -3.402870  -8.676820   5.136930  -0.000000   0.000000  -0.000000   4.697390  15.152300  -6.414040  -3.785580  17.425800 -10.889700   1.978550  -9.154590   8.090730   0.000000   0.000000   0.000000
